<svg width="36" height="31" viewBox="0 0 36 31" fill="none" xmlns="http://www.w3.org/2000/svg">
<path d="M1 1H6.39959C6.85252 1 7.2489 1.30443 7.36574 1.74204L12.7745 22C12.9614 22.6667 13.5595 24 14.4566 24C15.3537 24 26.0443 24 31.2774 24M9.97108 8H32.3988C33.5202 8 34.5294 8 34.0809 10C33.6323 12 32.7726 16.5 32.3988 18.5C32.2119 19.3333 31.6138 21 30.7167 21C29.8196 21 18.7553 21 13.3352 21" stroke="white" stroke-width="2" stroke-linecap="round"/>
<path d="M16.6997 27.0996C17.6732 27.0998 18.3423 27.7897 18.3423 28.5C18.3423 29.2103 17.6732 29.9002 16.6997 29.9004C15.726 29.9004 15.0562 29.2104 15.0562 28.5C15.0562 27.7896 15.726 27.0996 16.6997 27.0996Z" stroke="white" stroke-width="1.2"/>
<path d="M27.9136 27.0996C28.8871 27.0998 29.5562 27.7897 29.5562 28.5C29.5562 29.2103 28.8871 29.9002 27.9136 29.9004C26.9398 29.9004 26.27 29.2104 26.27 28.5C26.27 27.7896 26.9398 27.0996 27.9136 27.0996Z" stroke="white" stroke-width="1.2"/>
</svg>
