<svg width="26" height="24" viewBox="0 0 26 24" fill="none" xmlns="http://www.w3.org/2000/svg">
<path d="M25.4893 23.0373L24.6414 23.9796L16.1576 16.3452L17.0055 15.403L25.4893 23.0373ZM2.77734 2.79389C6.32839 -0.771454 12.0908 -0.962907 15.8736 2.44114L16.2288 2.77784C19.7941 6.32886 19.9855 12.0913 16.5815 15.8741L16.2448 16.2293C12.8083 19.6799 7.301 19.97 3.52076 16.8999L3.14858 16.582C-0.756252 13.0682 -1.07322 7.05392 2.44063 3.14909L2.77734 2.79389ZM3.31246 3.93362C0.231734 7.35714 0.509601 12.6295 3.93311 15.7102C7.35663 18.7908 12.629 18.513 15.7097 15.0896C18.7903 11.6661 18.5124 6.39367 15.0891 3.31297C11.6656 0.232282 6.3932 0.510234 3.31246 3.93362Z" fill="black" fill-opacity="0.5"/>
</svg>
