<svg width="15" height="15" viewBox="0 0 15 15" fill="none" xmlns="http://www.w3.org/2000/svg">
<path d="M6.48351 0.690966C6.78287 -0.230345 8.08628 -0.230344 8.38563 0.690966L9.4552 3.98276C9.58907 4.39479 9.97303 4.67375 10.4063 4.67375H13.8675C14.8362 4.67375 15.239 5.91336 14.4552 6.48276L11.6551 8.51721C11.3046 8.77185 11.1579 9.22322 11.2918 9.63524L12.3614 12.927C12.6607 13.8483 11.6062 14.6145 10.8225 14.0451L8.02236 12.0106C7.67187 11.756 7.19727 11.756 6.84678 12.0106L4.04662 14.0451C3.2629 14.6145 2.20842 13.8483 2.50777 12.927L3.57734 9.63524C3.71122 9.22322 3.56456 8.77185 3.21407 8.51721L0.413903 6.48276C-0.369811 5.91336 0.0329652 4.67375 1.00169 4.67375H4.46289C4.89611 4.67375 5.28007 4.39479 5.41394 3.98276L6.48351 0.690966Z" fill="#E2DA00"/>
</svg>
