<svg width="33" height="31" viewBox="0 0 33 31" fill="none" xmlns="http://www.w3.org/2000/svg">
<path d="M3.08301 1.02734H10.917C12.052 1.02734 12.9727 1.94804 12.9727 3.08301V10.917C12.9727 12.052 12.052 12.9727 10.917 12.9727H3.08301C1.94804 12.9727 1.02734 12.052 1.02734 10.917V3.08301C1.02734 1.94804 1.94804 1.02734 3.08301 1.02734Z" fill="#E9E9E9" stroke="#210030" stroke-width="2.05505"/>
<path d="M22.083 1.02734H29.917C31.052 1.02734 31.9727 1.94804 31.9727 3.08301V10.917C31.9727 12.052 31.052 12.9727 29.917 12.9727H22.083C20.948 12.9727 20.0273 12.052 20.0273 10.917V3.08301C20.0273 1.94804 20.948 1.02734 22.083 1.02734Z" fill="#E9E9E9" stroke="#210030" stroke-width="2.05505"/>
<path d="M22.083 18.0273H29.917C31.052 18.0273 31.9727 18.948 31.9727 20.083V27.917C31.9727 29.052 31.052 29.9727 29.917 29.9727H22.083C20.948 29.9727 20.0273 29.052 20.0273 27.917V20.083C20.0273 18.948 20.948 18.0273 22.083 18.0273Z" fill="#E9E9E9" stroke="#210030" stroke-width="2.05505"/>
<path d="M3.08301 18.0273H10.917C12.052 18.0273 12.9727 18.948 12.9727 20.083V27.917C12.9727 29.052 12.052 29.9727 10.917 29.9727H3.08301C1.94804 29.9727 1.02734 29.052 1.02734 27.917V20.083C1.02734 18.948 1.94804 18.0273 3.08301 18.0273Z" fill="#E9E9E9" stroke="#210030" stroke-width="2.05505"/>
</svg>
