<svg width="26" height="24" viewBox="0 0 26 24" fill="none" xmlns="http://www.w3.org/2000/svg">
<path d="M25.4898 23.0373L24.6419 23.9795L16.1581 16.3452L17.006 15.4029L25.4898 23.0373ZM2.77782 2.79383C6.32888 -0.771515 12.0913 -0.962968 15.8741 2.44108L16.2293 2.77778C19.7946 6.3288 19.986 12.0912 16.582 15.874L16.2453 16.2292C12.8088 19.6798 7.30149 19.9699 3.52125 16.8998L3.14907 16.582C-0.755763 13.0681 -1.07273 7.05386 2.44112 3.14903L2.77782 2.79383ZM3.31295 3.93356C0.232223 7.35708 0.51009 12.6294 3.9336 15.7102C7.35712 18.7908 12.6295 18.513 15.7102 15.0895C18.7908 11.666 18.5129 6.39361 15.0895 3.3129C11.6661 0.232221 6.39369 0.510173 3.31295 3.93356Z" fill="#210030" fill-opacity="0.5"/>
</svg>
