<svg width="30" height="30" viewBox="0 0 30 30" fill="none" xmlns="http://www.w3.org/2000/svg">
<circle cx="15" cy="15" r="14.25" stroke="#210030" stroke-width="1.5"/>
<line x1="15.3218" y1="1.60718" x2="15.3218" y2="5.25003" stroke="#210030" stroke-width="1.5" stroke-linecap="round"/>
<line x1="15.3218" y1="24.75" x2="15.3218" y2="28.3929" stroke="#210030" stroke-width="1.5" stroke-linecap="round"/>
<line x1="24.75" y1="14.6785" x2="28.3929" y2="14.6785" stroke="#210030" stroke-width="1.5" stroke-linecap="round"/>
<line x1="1.60742" y1="14.6785" x2="5.25028" y2="14.6785" stroke="#210030" stroke-width="1.5" stroke-linecap="round"/>
<path d="M16.1782 8.57136C16.1782 8.15715 15.8424 7.82136 15.4282 7.82136C15.014 7.82136 14.6782 8.15715 14.6782 8.57136L15.4282 8.57136L16.1782 8.57136ZM15.4282 16.2856L16.1782 16.2856L16.1782 8.57136L15.4282 8.57136L14.6782 8.57136L14.6782 16.2856L15.4282 16.2856Z" fill="#210030"/>
<path d="M19.2467 21.5283C19.5175 21.8418 19.9911 21.8765 20.3046 21.6058C20.6181 21.335 20.6527 20.8614 20.382 20.5479L19.8144 21.0381L19.2467 21.5283ZM15.166 15.6555L14.5984 16.1457L19.2467 21.5283L19.8144 21.0381L20.382 20.5479L15.7336 15.1653L15.166 15.6555Z" fill="#210030"/>
</svg>
