<svg width="30" height="32" viewBox="0 0 30 32" fill="none" xmlns="http://www.w3.org/2000/svg">
<path d="M15.3691 16.2266C17.2131 16.272 19.0342 16.6566 20.7402 17.3633C22.56 18.1171 24.2136 19.2225 25.6064 20.6152C26.9992 22.008 28.1046 23.6617 28.8584 25.4814C29.6121 27.3012 29.9999 29.252 30 31.2217H0C5.5429e-05 29.3751 0.341185 27.5451 1.00488 25.8242L1.1416 25.4814C1.84835 23.7753 2.86388 22.2149 4.13574 20.8789L4.39355 20.6152C5.69943 19.3094 7.23453 18.2564 8.9209 17.5088L9.25977 17.3633C11.0796 16.6095 13.0303 16.2217 15 16.2217L15.3691 16.2266ZM15 17.7217C13.2273 17.7217 11.4718 18.0707 9.83398 18.749C8.19619 19.4274 6.70765 20.4223 5.4541 21.6758C4.20061 22.9293 3.20578 24.4179 2.52734 26.0557C2.04121 27.2294 1.72562 28.4641 1.58496 29.7217H28.415C28.2744 28.4641 27.9588 27.2294 27.4727 26.0557C26.7942 24.4179 25.7994 22.9293 24.5459 21.6758C23.2924 20.4223 21.8038 19.4274 20.166 18.749C18.5282 18.0707 16.7727 17.7217 15 17.7217ZM14.8848 0C18.7505 0.000263874 21.8848 3.13417 21.8848 7C21.8848 10.8658 18.7505 13.9997 14.8848 14C11.0188 14 7.88477 10.866 7.88477 7C7.88477 3.13401 11.0188 0 14.8848 0ZM14.8848 1.5C11.8472 1.5 9.38477 3.96243 9.38477 7C9.38477 10.0376 11.8472 12.5 14.8848 12.5C17.9221 12.4997 20.3848 10.0374 20.3848 7C20.3848 3.9626 17.9221 1.50026 14.8848 1.5Z" fill="#210030"/>
</svg>
